<svg id="visual" viewBox="0 0 900 600" width="900" height="600" xmlns="http://www.w3.org/2000/svg" xmlns:xlink="http://www.w3.org/1999/xlink" version="1.1"><rect x="0" y="0" width="900" height="600" fill="#F3CCF3"></rect><path d="M0 332L21.5 346.8C43 361.7 86 391.3 128.8 396.2C171.7 401 214.3 381 257.2 356.3C300 331.7 343 302.3 385.8 288C428.7 273.7 471.3 274.3 514.2 278.7C557 283 600 291 642.8 314C685.7 337 728.3 375 771.2 400.8C814 426.7 857 440.3 878.5 447.2L900 454L900 601L878.5 601C857 601 814 601 771.2 601C728.3 601 685.7 601 642.8 601C600 601 557 601 514.2 601C471.3 601 428.7 601 385.8 601C343 601 300 601 257.2 601C214.3 601 171.7 601 128.8 601C86 601 43 601 21.5 601L0 601Z" fill="#F8F4EC" stroke-linecap="round" stroke-linejoin="miter"></path></svg>