<svg id="visual" viewBox="0 0 900 600" width="900" height="600" xmlns="http://www.w3.org/2000/svg" xmlns:xlink="http://www.w3.org/1999/xlink" version="1.1"><rect x="0" y="0" width="900" height="600" fill="#F3CCF3"></rect><path d="M0 266L21.5 251.2C43 236.3 86 206.7 128.8 201.8C171.7 197 214.3 217 257.2 241.7C300 266.3 343 295.7 385.8 310C428.7 324.3 471.3 323.7 514.2 319.3C557 315 600 307 642.8 284C685.7 261 728.3 223 771.2 197.2C814 171.3 857 157.7 878.5 150.8L900 144L900 0L878.5 0C857 0 814 0 771.2 0C728.3 0 685.7 0 642.8 0C600 0 557 0 514.2 0C471.3 0 428.7 0 385.8 0C343 0 300 0 257.2 0C214.3 0 171.7 0 128.8 0C86 0 43 0 21.5 0L0 0Z" fill="#F8F4EC" stroke-linecap="round" stroke-linejoin="miter"></path></svg>